<svg width="228" height="82" viewBox="0 0 228 82" fill="none" xmlns="http://www.w3.org/2000/svg">
<path d="M101.713 56.4355H102.52V59.352H105.731V56.4355H106.539V62.9905H105.731V60.0645H102.52V62.9905H101.713V56.4355ZM107.756 60.6535C107.756 60.2988 107.791 59.9695 107.861 59.6655C107.931 59.3615 108.045 59.0987 108.203 58.877C108.361 58.649 108.57 58.4717 108.83 58.345C109.096 58.212 109.422 58.1455 109.808 58.1455C110.176 58.1455 110.489 58.2057 110.749 58.326C111.009 58.44 111.221 58.6078 111.385 58.8295C111.55 59.0448 111.67 59.3077 111.746 59.618C111.822 59.922 111.86 60.264 111.86 60.644C111.86 60.9987 111.826 61.328 111.756 61.632C111.686 61.9297 111.569 62.1893 111.404 62.411C111.246 62.6263 111.034 62.7973 110.768 62.924C110.508 63.0443 110.185 63.1045 109.799 63.1045C109.438 63.1045 109.128 63.0507 108.868 62.943C108.615 62.829 108.402 62.6675 108.231 62.4585C108.067 62.2495 107.946 61.993 107.87 61.689C107.794 61.385 107.756 61.0398 107.756 60.6535ZM108.564 60.644C108.564 60.8973 108.58 61.1348 108.611 61.3565C108.643 61.5718 108.703 61.7587 108.792 61.917C108.887 62.0753 109.017 62.1988 109.181 62.2875C109.346 62.3762 109.558 62.4205 109.818 62.4205C110.059 62.4205 110.258 62.3825 110.416 62.3065C110.575 62.2242 110.701 62.107 110.796 61.955C110.891 61.7967 110.958 61.6067 110.996 61.385C111.034 61.1633 111.053 60.91 111.053 60.625C111.053 60.3843 111.037 60.1563 111.005 59.941C110.974 59.7193 110.91 59.5262 110.815 59.3615C110.727 59.1968 110.6 59.067 110.435 58.972C110.277 58.877 110.065 58.8295 109.799 58.8295C109.552 58.8295 109.349 58.8707 109.191 58.953C109.033 59.0353 108.906 59.1557 108.811 59.314C108.722 59.4723 108.659 59.6655 108.621 59.8935C108.583 60.1152 108.564 60.3653 108.564 60.644ZM112.954 58.2595H113.733V58.5635C113.974 58.4242 114.205 58.3228 114.426 58.2595C114.648 58.1898 114.879 58.155 115.12 58.155C115.671 58.155 116.067 58.3133 116.307 58.63C116.573 58.478 116.865 58.3608 117.181 58.2785C117.504 58.1962 117.799 58.155 118.065 58.155C118.382 58.155 118.638 58.2152 118.834 58.3355C119.037 58.4558 119.195 58.6205 119.309 58.8295C119.423 59.0385 119.499 59.2855 119.537 59.5705C119.582 59.8492 119.604 60.15 119.604 60.473V62.9905H118.815V60.5015C118.815 60.2798 118.806 60.0708 118.787 59.8745C118.774 59.6718 118.733 59.4945 118.663 59.3425C118.6 59.1905 118.502 59.0702 118.369 58.9815C118.242 58.8928 118.068 58.8485 117.846 58.8485C117.656 58.8485 117.447 58.8802 117.219 58.9435C116.991 59.0068 116.779 59.086 116.583 59.181C116.659 59.295 116.697 59.7447 116.697 60.53V62.9905H115.908V60.549C115.908 60.3463 115.902 60.1437 115.889 59.941C115.883 59.7383 115.851 59.5578 115.794 59.3995C115.737 59.2348 115.649 59.1018 115.528 59.0005C115.408 58.8992 115.237 58.8485 115.015 58.8485C114.92 58.8485 114.816 58.858 114.702 58.877C114.588 58.896 114.474 58.9213 114.36 58.953C114.246 58.9847 114.135 59.0195 114.027 59.0575C113.92 59.0955 113.825 59.1367 113.742 59.181V62.9905H112.954V58.2595ZM120.643 60.682C120.643 59.8333 120.805 59.2 121.128 58.782C121.457 58.3577 121.967 58.1455 122.657 58.1455C123.303 58.1455 123.791 58.3292 124.12 58.6965C124.456 59.0575 124.608 59.6117 124.576 60.359L124.529 60.91H121.432C121.432 61.1823 121.454 61.4135 121.498 61.6035C121.549 61.7935 121.625 61.9487 121.726 62.069C121.834 62.1893 121.973 62.278 122.144 62.335C122.321 62.3857 122.543 62.411 122.809 62.411C122.999 62.411 123.211 62.4078 123.446 62.4015C123.68 62.3952 123.902 62.3825 124.111 62.3635L124.396 62.335L124.415 62.924C123.737 63.0443 123.148 63.1045 122.648 63.1045C122.28 63.1045 121.967 63.0507 121.707 62.943C121.454 62.829 121.248 62.6707 121.09 62.468C120.931 62.259 120.817 62.0057 120.748 61.708C120.678 61.404 120.643 61.062 120.643 60.682ZM121.422 60.3305H123.788C123.788 59.7858 123.699 59.3995 123.522 59.1715C123.344 58.9372 123.056 58.82 122.657 58.82C122.239 58.82 121.929 58.9403 121.726 59.181C121.53 59.4153 121.428 59.7985 121.422 60.3305ZM126.882 56.4355H127.689V63H126.882V56.4355ZM129.004 58.2595H129.783V58.5635C130.061 58.4178 130.312 58.3133 130.533 58.25C130.761 58.1867 130.989 58.155 131.217 58.155C131.547 58.155 131.816 58.212 132.025 58.326C132.234 58.4337 132.398 58.5888 132.519 58.7915C132.639 58.9878 132.721 59.2285 132.766 59.5135C132.81 59.7985 132.832 60.1183 132.832 60.473V62.9905H132.044V60.5015C132.044 60.2925 132.034 60.0898 132.015 59.8935C131.996 59.6972 131.952 59.523 131.882 59.371C131.819 59.2127 131.724 59.086 131.597 58.991C131.471 58.896 131.296 58.8485 131.075 58.8485C130.973 58.8485 130.863 58.858 130.742 58.877C130.622 58.896 130.505 58.9245 130.391 58.9625C130.277 58.9942 130.166 59.029 130.058 59.067C129.957 59.105 129.868 59.143 129.792 59.181V62.9905H129.004V58.2595ZM135.582 63.1045C135.335 63.1045 135.13 63.076 134.965 63.019C134.8 62.962 134.667 62.867 134.566 62.734C134.465 62.601 134.392 62.4237 134.347 62.202C134.303 61.9803 134.281 61.7048 134.281 61.3755V58.9245H133.625V58.25H134.281V56.8155H135.069V58.25H136.523V58.9245H135.069V61.252C135.069 61.4293 135.073 61.5908 135.079 61.7365C135.092 61.8822 135.117 62.0057 135.155 62.107C135.199 62.202 135.266 62.278 135.354 62.335C135.443 62.3857 135.563 62.411 135.715 62.411L136.542 62.3635L136.58 62.9905C136.346 63.0348 136.152 63.0633 136 63.076C135.848 63.095 135.709 63.1045 135.582 63.1045ZM137.389 60.682C137.389 59.8333 137.55 59.2 137.873 58.782C138.203 58.3577 138.712 58.1455 139.403 58.1455C140.049 58.1455 140.536 58.3292 140.866 58.6965C141.201 59.0575 141.353 59.6117 141.322 60.359L141.274 60.91H138.177C138.177 61.1823 138.199 61.4135 138.244 61.6035C138.294 61.7935 138.37 61.9487 138.472 62.069C138.579 62.1893 138.719 62.278 138.89 62.335C139.067 62.3857 139.289 62.411 139.555 62.411C139.745 62.411 139.957 62.4078 140.191 62.4015C140.426 62.3952 140.647 62.3825 140.856 62.3635L141.141 62.335L141.16 62.924C140.483 63.0443 139.894 63.1045 139.393 63.1045C139.026 63.1045 138.712 63.0507 138.453 62.943C138.199 62.829 137.994 62.6707 137.835 62.468C137.677 62.259 137.563 62.0057 137.493 61.708C137.424 61.404 137.389 61.062 137.389 60.682ZM138.168 60.3305H140.533C140.533 59.7858 140.445 59.3995 140.267 59.1715C140.09 58.9372 139.802 58.82 139.403 58.82C138.985 58.82 138.674 58.9403 138.472 59.181C138.275 59.4153 138.174 59.7985 138.168 60.3305ZM142.327 56.198H143.116V63H142.327V56.198ZM144.396 56.198H145.185V63H144.396V56.198ZM146.417 58.25H147.206V63H146.417V58.25ZM146.417 56.312H147.206V57.1955H146.417V56.312ZM148.317 63.8645C148.317 63.5922 148.381 63.3642 148.507 63.1805C148.634 63.0032 148.818 62.8227 149.058 62.639C148.97 62.5757 148.9 62.4902 148.849 62.3825C148.805 62.2748 148.783 62.1672 148.783 62.0595C148.783 61.9518 148.811 61.8315 148.868 61.6985C148.925 61.5655 149.005 61.404 149.106 61.214C148.618 60.9733 148.374 60.4983 148.374 59.789C148.374 58.6997 148.97 58.155 150.16 58.155C150.471 58.155 150.8 58.1962 151.148 58.2785L152.583 58.2405V58.896L151.709 58.877C151.817 58.991 151.893 59.1208 151.937 59.2665C151.981 59.4122 152.003 59.5895 152.003 59.7985C152.003 60.3812 151.858 60.796 151.566 61.043C151.275 61.2837 150.822 61.404 150.208 61.404C150.088 61.404 149.986 61.4008 149.904 61.3945C149.828 61.3882 149.758 61.3787 149.695 61.366C149.663 61.4357 149.625 61.5338 149.581 61.6605C149.543 61.7872 149.527 61.8917 149.533 61.974C149.54 62.1007 149.613 62.1862 149.752 62.2305C149.891 62.2748 150.103 62.3002 150.388 62.3065C150.445 62.3065 150.512 62.3065 150.588 62.3065C150.664 62.3065 150.737 62.3097 150.806 62.316C150.882 62.316 150.952 62.3192 151.015 62.3255C151.079 62.3255 151.126 62.3255 151.158 62.3255C151.348 62.3382 151.525 62.3698 151.69 62.4205C151.855 62.4648 151.997 62.5408 152.117 62.6485C152.244 62.7498 152.342 62.886 152.412 63.057C152.482 63.228 152.516 63.4402 152.516 63.6935C152.516 64.2192 152.342 64.6055 151.994 64.8525C151.652 65.1058 151.085 65.2325 150.293 65.2325C149.932 65.2325 149.625 65.2072 149.372 65.1565C149.125 65.1058 148.922 65.0235 148.764 64.9095C148.612 64.8018 148.498 64.6593 148.422 64.482C148.352 64.311 148.317 64.1052 148.317 63.8645ZM149.096 63.76C149.096 63.9183 149.115 64.0513 149.153 64.159C149.198 64.2667 149.267 64.3522 149.362 64.4155C149.457 64.4788 149.584 64.5232 149.742 64.5485C149.901 64.5802 150.097 64.596 150.331 64.596C150.844 64.596 151.205 64.5295 151.414 64.3965C151.623 64.2635 151.728 64.045 151.728 63.741C151.728 63.5827 151.699 63.4497 151.642 63.342C151.585 63.2407 151.506 63.1583 151.405 63.095C151.304 63.0317 151.183 62.9905 151.044 62.9715C150.905 62.9462 150.749 62.9335 150.578 62.9335H149.59C149.432 63.0602 149.309 63.1805 149.22 63.2945C149.138 63.4148 149.096 63.57 149.096 63.76ZM150.189 60.777C150.556 60.777 150.819 60.701 150.977 60.549C151.136 60.397 151.215 60.1405 151.215 59.7795C151.215 59.4185 151.136 59.1652 150.977 59.0195C150.819 58.8675 150.559 58.7915 150.198 58.7915C149.825 58.7915 149.556 58.8675 149.391 59.0195C149.233 59.1715 149.153 59.428 149.153 59.789C149.153 60.1437 149.233 60.397 149.391 60.549C149.556 60.701 149.822 60.777 150.189 60.777ZM153.485 60.682C153.485 59.8333 153.646 59.2 153.969 58.782C154.299 58.3577 154.809 58.1455 155.499 58.1455C156.145 58.1455 156.633 58.3292 156.962 58.6965C157.298 59.0575 157.45 59.6117 157.418 60.359L157.37 60.91H154.273C154.273 61.1823 154.296 61.4135 154.34 61.6035C154.391 61.7935 154.467 61.9487 154.568 62.069C154.676 62.1893 154.815 62.278 154.986 62.335C155.163 62.3857 155.385 62.411 155.651 62.411C155.841 62.411 156.053 62.4078 156.287 62.4015C156.522 62.3952 156.743 62.3825 156.952 62.3635L157.237 62.335L157.256 62.924C156.579 63.0443 155.99 63.1045 155.489 63.1045C155.122 63.1045 154.809 63.0507 154.549 62.943C154.296 62.829 154.09 62.6707 153.931 62.468C153.773 62.259 153.659 62.0057 153.589 61.708C153.52 61.404 153.485 61.062 153.485 60.682ZM154.264 60.3305H156.629C156.629 59.7858 156.541 59.3995 156.363 59.1715C156.186 58.9372 155.898 58.82 155.499 58.82C155.081 58.82 154.771 58.9403 154.568 59.181C154.372 59.4153 154.27 59.7985 154.264 60.3305ZM158.376 58.2595H159.155V58.5635C159.434 58.4178 159.684 58.3133 159.905 58.25C160.133 58.1867 160.361 58.155 160.589 58.155C160.919 58.155 161.188 58.212 161.397 58.326C161.606 58.4337 161.771 58.5888 161.891 58.7915C162.011 58.9878 162.094 59.2285 162.138 59.5135C162.182 59.7985 162.204 60.1183 162.204 60.473V62.9905H161.416V60.5015C161.416 60.2925 161.406 60.0898 161.387 59.8935C161.368 59.6972 161.324 59.523 161.254 59.371C161.191 59.2127 161.096 59.086 160.969 58.991C160.843 58.896 160.669 58.8485 160.447 58.8485C160.346 58.8485 160.235 58.858 160.114 58.877C159.994 58.896 159.877 58.9245 159.763 58.9625C159.649 58.9942 159.538 59.029 159.43 59.067C159.329 59.105 159.24 59.143 159.164 59.181V62.9905H158.376V58.2595ZM165.011 63.1045C164.726 63.1045 164.438 63.0823 164.147 63.038C163.862 63 163.58 62.9557 163.301 62.905L163.339 62.24C163.707 62.2907 164.027 62.335 164.299 62.373C164.578 62.4047 164.818 62.4205 165.021 62.4205C165.363 62.4205 165.619 62.3667 165.79 62.259C165.968 62.145 166.056 61.955 166.056 61.689C166.056 61.556 166.018 61.4452 165.942 61.3565C165.866 61.2615 165.765 61.1823 165.638 61.119C165.518 61.0557 165.379 61.005 165.22 60.967C165.068 60.9227 164.916 60.8878 164.764 60.8625C164.511 60.8182 164.286 60.7643 164.09 60.701C163.9 60.6377 163.742 60.5553 163.615 60.454C163.488 60.3527 163.393 60.2292 163.33 60.0835C163.267 59.9315 163.235 59.751 163.235 59.542C163.235 59.0607 163.39 58.7092 163.7 58.4875C164.017 58.2658 164.467 58.155 165.049 58.155C165.309 58.155 165.581 58.174 165.866 58.212C166.151 58.25 166.427 58.2943 166.693 58.345L166.674 59.01C166.37 58.9657 166.079 58.9277 165.8 58.896C165.528 58.858 165.277 58.839 165.049 58.839C164.695 58.839 164.435 58.8928 164.27 59.0005C164.106 59.1082 164.023 59.2728 164.023 59.4945C164.023 59.5958 164.039 59.6845 164.071 59.7605C164.109 59.8302 164.169 59.8935 164.251 59.9505C164.34 60.0075 164.451 60.0582 164.584 60.1025C164.723 60.1468 164.894 60.188 165.097 60.226C165.281 60.264 165.474 60.3115 165.676 60.3685C165.885 60.4255 166.075 60.5047 166.246 60.606C166.417 60.701 166.56 60.8308 166.674 60.9955C166.788 61.1538 166.845 61.3565 166.845 61.6035C166.845 62.1228 166.696 62.5028 166.398 62.7435C166.107 62.9842 165.645 63.1045 165.011 63.1045ZM167.874 60.682C167.874 59.8333 168.036 59.2 168.359 58.782C168.688 58.3577 169.198 58.1455 169.888 58.1455C170.534 58.1455 171.022 58.3292 171.351 58.6965C171.687 59.0575 171.839 59.6117 171.807 60.359L171.76 60.91H168.663C168.663 61.1823 168.685 61.4135 168.729 61.6035C168.78 61.7935 168.856 61.9487 168.957 62.069C169.065 62.1893 169.204 62.278 169.375 62.335C169.552 62.3857 169.774 62.411 170.04 62.411C170.23 62.411 170.442 62.4078 170.677 62.4015C170.911 62.3952 171.133 62.3825 171.342 62.3635L171.627 62.335L171.646 62.924C170.968 63.0443 170.379 63.1045 169.879 63.1045C169.511 63.1045 169.198 63.0507 168.938 62.943C168.685 62.829 168.479 62.6707 168.321 62.468C168.162 62.259 168.048 62.0057 167.979 61.708C167.909 61.404 167.874 61.062 167.874 60.682ZM168.653 60.3305H171.019C171.019 59.7858 170.93 59.3995 170.753 59.1715C170.575 58.9372 170.287 58.82 169.888 58.82C169.47 58.82 169.16 58.9403 168.957 59.181C168.761 59.4153 168.659 59.7985 168.653 60.3305ZM174.92 57.148V59.6275H177.571V60.34H174.92V63.0095H174.113V56.4355H178.074V57.148H174.92ZM178.914 60.6535C178.914 60.2988 178.948 59.9695 179.018 59.6655C179.088 59.3615 179.202 59.0987 179.36 58.877C179.518 58.649 179.727 58.4717 179.987 58.345C180.253 58.212 180.579 58.1455 180.966 58.1455C181.333 58.1455 181.646 58.2057 181.906 58.326C182.166 58.44 182.378 58.6078 182.543 58.8295C182.707 59.0448 182.828 59.3077 182.904 59.618C182.98 59.922 183.018 60.264 183.018 60.644C183.018 60.9987 182.983 61.328 182.913 61.632C182.843 61.9297 182.726 62.1893 182.562 62.411C182.403 62.6263 182.191 62.7973 181.925 62.924C181.665 63.0443 181.342 63.1045 180.956 63.1045C180.595 63.1045 180.285 63.0507 180.025 62.943C179.772 62.829 179.56 62.6675 179.389 62.4585C179.224 62.2495 179.104 61.993 179.028 61.689C178.952 61.385 178.914 61.0398 178.914 60.6535ZM179.721 60.644C179.721 60.8973 179.737 61.1348 179.769 61.3565C179.8 61.5718 179.86 61.7587 179.949 61.917C180.044 62.0753 180.174 62.1988 180.339 62.2875C180.503 62.3762 180.715 62.4205 180.975 62.4205C181.216 62.4205 181.415 62.3825 181.574 62.3065C181.732 62.2242 181.859 62.107 181.954 61.955C182.049 61.7967 182.115 61.6067 182.153 61.385C182.191 61.1633 182.21 60.91 182.21 60.625C182.21 60.3843 182.194 60.1563 182.163 59.941C182.131 59.7193 182.068 59.5262 181.973 59.3615C181.884 59.1968 181.757 59.067 181.593 58.972C181.434 58.877 181.222 58.8295 180.956 58.8295C180.709 58.8295 180.506 58.8707 180.348 58.953C180.19 59.0353 180.063 59.1557 179.968 59.314C179.879 59.4723 179.816 59.6655 179.778 59.8935C179.74 60.1152 179.721 60.3653 179.721 60.644ZM184.111 58.25H184.89V58.877C185.422 58.5097 185.992 58.2658 186.6 58.1455V58.9435C186.48 58.9625 186.347 58.9942 186.201 59.0385C186.056 59.0828 185.907 59.1335 185.755 59.1905C185.603 59.2475 185.451 59.3077 185.299 59.371C185.153 59.4343 185.02 59.4945 184.9 59.5515V63H184.111V58.25ZM188.8 56.4355H192.828V57.148H189.607V59.3235H192.258V60.036H189.607V62.2875H192.828V63H188.8V56.4355ZM193.613 58.25H194.439L195.503 62.3255H195.855L196.957 58.25H197.764L196.444 63H194.924L193.613 58.25ZM198.545 60.682C198.545 59.8333 198.706 59.2 199.029 58.782C199.359 58.3577 199.869 58.1455 200.559 58.1455C201.205 58.1455 201.693 58.3292 202.022 58.6965C202.358 59.0575 202.51 59.6117 202.478 60.359L202.43 60.91H199.333C199.333 61.1823 199.356 61.4135 199.4 61.6035C199.451 61.7935 199.527 61.9487 199.628 62.069C199.736 62.1893 199.875 62.278 200.046 62.335C200.223 62.3857 200.445 62.411 200.711 62.411C200.901 62.411 201.113 62.4078 201.347 62.4015C201.582 62.3952 201.803 62.3825 202.012 62.3635L202.297 62.335L202.316 62.924C201.639 63.0443 201.05 63.1045 200.549 63.1045C200.182 63.1045 199.869 63.0507 199.609 62.943C199.356 62.829 199.15 62.6707 198.991 62.468C198.833 62.259 198.719 62.0057 198.649 61.708C198.58 61.404 198.545 61.062 198.545 60.682ZM199.324 60.3305H201.689C201.689 59.7858 201.601 59.3995 201.423 59.1715C201.246 58.9372 200.958 58.82 200.559 58.82C200.141 58.82 199.831 58.9403 199.628 59.181C199.432 59.4153 199.33 59.7985 199.324 60.3305ZM203.436 58.25H204.215V58.877C204.747 58.5097 205.317 58.2658 205.925 58.1455V58.9435C205.805 58.9625 205.672 58.9942 205.526 59.0385C205.38 59.0828 205.231 59.1335 205.079 59.1905C204.927 59.2475 204.775 59.3077 204.623 59.371C204.478 59.4343 204.345 59.4945 204.224 59.5515V63H203.436V58.25ZM207.185 58.25L208.334 62.3255H208.638L209.788 58.25H210.576L208.638 65.0995H207.859L208.458 63H207.736L206.415 58.25H207.185ZM211.338 60.6535C211.338 60.2988 211.373 59.9695 211.442 59.6655C211.512 59.3615 211.626 59.0987 211.784 58.877C211.943 58.649 212.152 58.4717 212.411 58.345C212.677 58.212 213.004 58.1455 213.39 58.1455C213.757 58.1455 214.071 58.2057 214.33 58.326C214.59 58.44 214.802 58.6078 214.967 58.8295C215.132 59.0448 215.252 59.3077 215.328 59.618C215.404 59.922 215.442 60.264 215.442 60.644C215.442 60.9987 215.407 61.328 215.337 61.632C215.268 61.9297 215.151 62.1893 214.986 62.411C214.828 62.6263 214.615 62.7973 214.349 62.924C214.09 63.0443 213.767 63.1045 213.38 63.1045C213.019 63.1045 212.709 63.0507 212.449 62.943C212.196 62.829 211.984 62.6675 211.813 62.4585C211.648 62.2495 211.528 61.993 211.452 61.689C211.376 61.385 211.338 61.0398 211.338 60.6535ZM212.145 60.644C212.145 60.8973 212.161 61.1348 212.193 61.3565C212.225 61.5718 212.285 61.7587 212.373 61.917C212.468 62.0753 212.598 62.1988 212.763 62.2875C212.928 62.3762 213.14 62.4205 213.399 62.4205C213.64 62.4205 213.84 62.3825 213.998 62.3065C214.156 62.2242 214.283 62.107 214.378 61.955C214.473 61.7967 214.539 61.6067 214.577 61.385C214.615 61.1633 214.634 60.91 214.634 60.625C214.634 60.3843 214.619 60.1563 214.587 59.941C214.555 59.7193 214.492 59.5262 214.397 59.3615C214.308 59.1968 214.182 59.067 214.017 58.972C213.859 58.877 213.646 58.8295 213.38 58.8295C213.133 58.8295 212.931 58.8707 212.772 58.953C212.614 59.0353 212.487 59.1557 212.392 59.314C212.304 59.4723 212.24 59.6655 212.202 59.8935C212.164 60.1152 212.145 60.3653 212.145 60.644ZM216.536 58.2595H217.315V58.5635C217.593 58.4178 217.843 58.3133 218.065 58.25C218.293 58.1867 218.521 58.155 218.749 58.155C219.078 58.155 219.348 58.212 219.557 58.326C219.766 58.4337 219.93 58.5888 220.051 58.7915C220.171 58.9878 220.253 59.2285 220.298 59.5135C220.342 59.7985 220.364 60.1183 220.364 60.473V62.9905H219.576V60.5015C219.576 60.2925 219.566 60.0898 219.547 59.8935C219.528 59.6972 219.484 59.523 219.414 59.371C219.351 59.2127 219.256 59.086 219.129 58.991C219.002 58.896 218.828 58.8485 218.607 58.8485C218.505 58.8485 218.394 58.858 218.274 58.877C218.154 58.896 218.037 58.9245 217.923 58.9625C217.809 58.9942 217.698 59.029 217.59 59.067C217.489 59.105 217.4 59.143 217.324 59.181V62.9905H216.536V58.2595ZM221.414 60.682C221.414 59.8333 221.575 59.2 221.898 58.782C222.227 58.3577 222.737 58.1455 223.428 58.1455C224.074 58.1455 224.561 58.3292 224.891 58.6965C225.226 59.0575 225.378 59.6117 225.347 60.359L225.299 60.91H222.202C222.202 61.1823 222.224 61.4135 222.269 61.6035C222.319 61.7935 222.395 61.9487 222.497 62.069C222.604 62.1893 222.744 62.278 222.915 62.335C223.092 62.3857 223.314 62.411 223.58 62.411C223.77 62.411 223.982 62.4078 224.216 62.4015C224.45 62.3952 224.672 62.3825 224.881 62.3635L225.166 62.335L225.185 62.924C224.507 63.0443 223.918 63.1045 223.418 63.1045C223.051 63.1045 222.737 63.0507 222.478 62.943C222.224 62.829 222.018 62.6707 221.86 62.468C221.702 62.259 221.588 62.0057 221.518 61.708C221.448 61.404 221.414 61.062 221.414 60.682ZM222.193 60.3305H224.558C224.558 59.7858 224.469 59.3995 224.292 59.1715C224.115 58.9372 223.827 58.82 223.428 58.82C223.01 58.82 222.699 58.9403 222.497 59.181C222.3 59.4153 222.199 59.7985 222.193 60.3305Z" fill="white"/>
<path d="M101.582 48.6956V14.9395H102.326L122.688 34.0161V15.9993H129.881V49.9358H129.205L108.775 30.8592V48.6956H101.582Z" fill="white"/>
<path d="M137.39 48.6956V15.9993H157.527V22.7415H144.967V28.6494H155.723V35.3465H144.967V41.8181H157.707V48.6956H137.39Z" fill="white"/>
<path d="M160.3 48.6956L172.048 31.7837L160.458 15.9993H169.996L176.738 25.3346L183.075 15.9993H191.576L181.045 31.1072L193.921 48.6956H184.315L176.378 37.6014L168.846 48.6956H160.3Z" fill="white"/>
<path d="M201.7 32.3474C201.7 35.1886 202.527 37.5713 204.181 39.4955C205.849 41.4047 207.901 42.3593 210.337 42.3593C212.787 42.3593 214.839 41.4047 216.493 39.4955C218.146 37.5863 218.973 35.2036 218.973 32.3474C218.973 29.4762 218.146 27.0859 216.493 25.1768C214.839 23.2526 212.787 22.2905 210.337 22.2905C207.901 22.2905 205.849 23.2526 204.181 25.1768C202.527 27.0859 201.7 29.4762 201.7 32.3474ZM193.673 32.3474C193.673 29.9271 194.086 27.6647 194.913 25.5601C195.755 23.4405 196.988 21.5464 198.611 19.8777C200.144 18.2842 201.926 17.0666 203.955 16.2248C205.985 15.3679 208.112 14.9395 210.337 14.9395C212.562 14.9395 214.689 15.3679 216.718 16.2248C218.763 17.0816 220.574 18.3143 222.152 19.9228C223.746 21.5313 224.949 23.3954 225.76 25.515C226.587 27.6196 227.001 29.8971 227.001 32.3474C227.001 34.3919 226.715 36.3161 226.144 38.12C225.572 39.9239 224.723 41.57 223.596 43.0583C222.002 45.1779 220.04 46.824 217.71 47.9965C215.395 49.1691 212.937 49.7554 210.337 49.7554C208.127 49.7554 206.007 49.327 203.978 48.4701C201.963 47.6132 200.175 46.3805 198.611 44.772C196.988 43.1034 195.755 41.2243 194.913 39.1347C194.086 37.0301 193.673 34.7677 193.673 32.3474Z" fill="white"/>
<path d="M59.7351 80.1672H50.3662V56.9928C50.3662 54.499 49.3843 52.1074 47.6365 50.344C45.8886 48.5806 43.5181 47.5899 41.0463 47.5899C38.5744 47.5899 36.2039 48.5806 34.456 50.344C32.7082 52.1074 31.7263 54.499 31.7263 56.9928V80.1672H22.3574V56.9928C22.3574 54.5161 22.841 52.0636 23.7804 49.7754C24.7198 47.4872 26.0968 45.4081 27.8327 43.6568C29.5686 41.9055 31.6293 40.5162 33.8974 39.5684C36.1654 38.6206 38.5962 38.1328 41.0511 38.1328C43.506 38.1328 45.9369 38.6206 48.2049 39.5684C50.4729 40.5162 52.5337 41.9055 54.2696 43.6568C56.0055 45.4081 57.3824 47.4872 58.3219 49.7754C59.2613 52.0636 59.7449 54.5161 59.7449 56.9928L59.7351 80.1672Z" fill="#F23545"/>
<path d="M53.511 9.47074C58.4775 9.47661 63.2388 11.4697 66.7507 15.0127C70.2625 18.5558 72.238 23.3595 72.2438 28.3702V53.5168C72.238 58.5275 70.2625 63.3312 66.7507 66.8743C63.2388 70.4173 58.4775 72.4104 53.511 72.4163H28.586C23.6196 72.4104 18.8582 70.4173 15.3464 66.8743C11.8345 63.3312 9.85905 58.5275 9.85322 53.5168V28.3702C9.85905 23.3595 11.8345 18.5558 15.3464 15.0127C18.8582 11.4697 23.6196 9.47661 28.586 9.47074H53.511ZM53.511 0.0185547H28.586C21.133 0.0185547 13.9852 3.00559 8.71516 8.32255C3.44508 13.6395 0.484375 20.8509 0.484375 28.3702L0.484375 53.5168C0.484375 61.0362 3.44508 68.2475 8.71516 73.5645C13.9852 78.8814 21.133 81.8685 28.586 81.8685H53.511C57.2013 81.8685 60.8556 81.1351 64.265 79.7103C67.6745 78.2855 70.7724 76.1972 73.3819 73.5645C75.9913 70.9318 78.0613 67.8063 79.4735 64.3665C80.8858 60.9268 81.6126 57.24 81.6126 53.5168V28.3702C81.6126 24.647 80.8858 20.9603 79.4735 17.5205C78.0613 14.0807 75.9913 10.9552 73.3819 8.32255C70.7724 5.68986 67.6745 3.6015 64.265 2.17669C60.8556 0.751891 57.2013 0.0185547 53.511 0.0185547V0.0185547Z" fill="#F23545"/>
<path d="M64.8494 7.92743C64.242 8.87651 63.9937 10.0145 64.1499 11.1332C64.306 12.2519 64.8562 13.2764 65.6998 14.0193C67.754 15.7919 69.4028 17.9928 70.5325 20.4703C71.6623 22.9478 72.2461 25.6431 72.2438 28.3702V53.5168C72.2431 58.5291 70.2693 63.3358 66.7564 66.88C63.2434 70.4242 58.479 72.4156 53.511 72.4163H28.586C23.618 72.4156 18.8536 70.4242 15.3407 66.88C11.8277 63.3358 9.85387 58.5291 9.85322 53.5168V28.3702C9.85387 23.3579 11.8277 18.5512 15.3407 15.007C18.8536 11.4628 23.618 9.47139 28.586 9.47074H46.7324C47.9748 9.47074 49.1663 8.97281 50.0448 8.0865C50.9233 7.20019 51.4168 5.99809 51.4168 4.74465C51.4168 3.49164 50.9236 2.28991 50.0456 1.40367C49.1676 0.517423 47.9768 0.0192083 46.7348 0.0185547L28.586 0.0185547C21.133 0.0185547 13.9852 3.00559 8.71516 8.32255C3.44508 13.6395 0.484375 20.8509 0.484375 28.3702L0.484375 53.5168C0.484375 61.0362 3.44508 68.2475 8.71516 73.5645C13.9852 78.8814 21.133 81.8685 28.586 81.8685H53.511C57.2013 81.8685 60.8556 81.1351 64.265 79.7103C67.6745 78.2855 70.7724 76.1972 73.3819 73.5645C75.9913 70.9318 78.0613 67.8063 79.4735 64.3665C80.8858 60.9268 81.6126 57.24 81.6126 53.5168V28.3702C81.618 24.2867 80.7471 20.2504 79.0599 16.5386C77.3726 12.8268 74.909 9.52751 71.8381 6.86732C71.3287 6.42802 70.7316 6.1043 70.0873 5.9181C69.4431 5.73189 68.7667 5.68756 68.1039 5.78808C67.4412 5.88861 66.8076 6.13166 66.2461 6.50076C65.6846 6.86986 65.2083 7.3564 64.8494 7.92743Z" fill="white"/>
</svg>
